<svg xmlns="http://www.w3.org/2000/svg" viewBox="0 0 700 700">
  <path fill="#000000" d="M151 151h398c27 0 49 22 49 49v32h-38v-26c0-10-8-17-17-17H157c-9 0-17 7-17 17v26h-38v-32c0-27 22-49 49-49Z"/>
  <path fill="#000000" d="M102 220h38v226c0 10 8 17 17 17h386c9 0 17-7 17-17V220h38v232c0 27-22 49-49 49H151c-27 0-49-22-49-49V220Z"/>
  <path fill="#000000" d="M171 492h72v48c0 10-8 18-18 18h-36c-10 0-18-8-18-18v-48Z"/>
  <path fill="#000000" d="M457 492h72v48c0 10-8 18-18 18h-36c-10 0-18-8-18-18v-48Z"/>
  <path fill="#000000" d="M292 216c47 0 87 18 118 49l-27 27c-24-24-54-38-91-38-71 0-128 57-128 128s57 128 128 128c37 0 67-14 91-38l27 27c-31 31-71 49-118 49-92 0-166-74-166-166s74-166 166-166Z"/>
  <path fill="#000000" d="M394 276c30 28 48 64 48 106s-18 78-48 106l-27-27c23-21 37-47 37-79s-14-58-37-79l27-27Z"/>
  <path fill="#000000" d="M292 273c43 0 73 25 80 57-39 5-64-5-81-30-4-11-3-20 1-27Z"/>
  <path fill="#000000" d="M376 371c-5 43-33 72-66 77-5-40 3-65 26-83 13 0 28 3 40 6Z"/>
  <path fill="#000000" d="M262 446c-39-17-58-50-52-83 37 14 59 32 65 59-4 11-8 18-13 24Z"/>
  <path fill="#000000" d="M272 362a25 25 0 1 0 40 30 25 25 0 1 0-40-30Z"/>
  <path fill="#000000" d="M468 260h73c10 0 18 8 18 18s-8 18-18 18h-73c-10 0-18-8-18-18s8-18 18-18Z"/>
  <path fill="#000000" d="M468 323h73c10 0 18 8 18 18s-8 18-18 18h-73c-10 0-18-8-18-18s8-18 18-18Z"/>
  <path fill="#000000" d="M468 386h73c10 0 18 8 18 18s-8 18-18 18h-73c-10 0-18-8-18-18s8-18 18-18Z"/>
</svg>
