<svg xmlns="http://www.w3.org/2000/svg" viewBox="0 0 700 700">
  <path fill="#000000" fill-rule="evenodd" d="M128 190a42 42 0 0 1 42-42h360a42 42 0 0 1 42 42v258a42 42 0 0 1-42 42h-15v28a14 14 0 0 1-14 14h-48a14 14 0 0 1-14-14v-28H261v28a14 14 0 0 1-14 14h-48a14 14 0 0 1-14-14v-28h-15a42 42 0 0 1-42-42V190Zm49 129a134 134 0 1 0 268 0 134 134 0 1 0-268 0Zm310-82a12 12 0 0 0 0 24h44a12 12 0 0 0 0-24h-44Zm0 55a12 12 0 0 0 0 24h44a12 12 0 0 0 0-24h-44Zm0 55a12 12 0 0 0 0 24h44a12 12 0 0 0 0-24h-44Zm0 55a12 12 0 0 0 0 24h44a12 12 0 0 0 0-24h-44Z"/>
  <path fill="#000000" d="M311 218c49 0 83 28 91 64-45 6-73-6-93-34-4-12-3-22 2-30Z"/>
  <path fill="#000000" d="M406 331c-6 49-38 82-75 87-6-45 3-74 29-94 14 0 32 3 46 7Z"/>
  <path fill="#000000" d="M277 416c-44-19-66-57-59-94 42 16 67 36 74 67-5 13-9 21-15 27Z"/>
  <circle fill="#000000" cx="311" cy="319" r="29"/>
</svg>
