<svg xmlns="http://www.w3.org/2000/svg" viewBox="250 50 700 700">
  <path fill="#000000" d="M373 230c66-79 163-126 267-126 87 0 169 32 233 88l-36 42c-54-47-123-74-197-74-88 0-169 39-225 105l38 6-10 54-118-22 22-118 54 10-8 35Z"/>
  <path fill="#000000" d="M827 470c-66 79-163 126-267 126-87 0-169-32-233-88l36-42c54 47 123 74 197 74 88 0 169-39 225-105l-38-6 10-54 118 22-22 118-54-10 8-35Z"/>
  <path fill="#000000" d="M478 326c-62-35-65-105-18-131 49 17 73 75 45 123l-27 8Z"/>
  <path fill="#000000" d="M624 324c35-62 105-65 131-18-17 49-75 73-123 45l-8-27Z"/>
  <path fill="#000000" d="M622 470c62 35 65 105 18 131-49-17-73-75-45-123l27-8Z"/>
  <path fill="#000000" d="M476 472c-35 62-105 65-131 18 17-49 75-73 123-45l8 27Z"/>
  <path fill="#000000" d="M517 362a47 47 0 1 0 66 66 47 47 0 1 0-66-66Z"/>
  <path fill="#000000" d="M297 370c39-30 78 30 117 0s78 30 117 0v54c-39 30-78-30-117 0s-78-30-117 0v-54Z"/>
  <path fill="#000000" d="M297 446c39-30 78 30 117 0s78 30 117 0v54c-39 30-78-30-117 0s-78-30-117 0v-54Z"/>
  <path fill="#000000" d="M783 334c0-53 62-111 62-111s62 58 62 111a62 62 0 1 1-124 0Z"/>
</svg>
