<svg xmlns="http://www.w3.org/2000/svg" viewBox="0 0 960 960">
  <g fill="none" stroke="#000" stroke-linecap="round" stroke-linejoin="round" stroke-width="58">
    <path d="M173 310A350 350 0 0 1 740 194"/>
    <path d="m728 105 15 94-95 15"/>
    <path d="M787 650A350 350 0 0 1 220 766"/>
    <path d="m232 855-15-94 95-15"/>
    <path d="M115 425c48-38 96 38 144 0s96 38 144 0"/>
    <path d="M115 525c48-38 96 38 144 0s96 38 144 0"/>
    <path d="M653 472c0-62 72-130 72-130s72 68 72 130a72 72 0 0 1-144 0Z"/>
  </g>
  <g fill="#000">
    <circle cx="480" cy="480" r="44"/>
    <path d="M461 432c-95-47-95-151-25-178 63 39 81 124 25 178Z"/>
    <path d="M528 461c47-95 151-95 178-25-39 63-124 81-178 25Z"/>
    <path d="M499 528c95 47 95 151 25 178-63-39-81-124-25-178Z"/>
    <path d="M432 499c-47 95-151 95-178 25 39-63 124-81 178-25Z"/>
  </g>
</svg>
